<svg data-noselect="" viewBox="0 0 170 170" width="170" height="170" preserveAspectRatio="none" version="1.1" xmlns="http://www.w3.org/2000/svg" style="background: rgba(255, 255, 255, 0);"><defs></defs> <g id="shape_aeGjDruE5V" transform="translate(30,30) rotate(0,55,40.5) scale(1,1)" filter="" style="cursor: move; opacity: 1;"><g><rect fill="rgba(0,0,0,0)" width="130" height="101" x="-10" y="-10"></rect><svg xmlns="http://www.w3.org/2000/svg" xmlns:xlink="http://www.w3.org/1999/xlink" shape-rendering="auto" id="layer1" text-rendering="auto" width="110" contentscripttype="text/ecmascript" color-rendering="auto" color-interpolation="auto" xml:space="preserve" preserveAspectRatio="none" viewBox="0 0 110.885 81.943" image-rendering="auto" zoomAndPan="magnify" version="1.1" contentstyletype="text/css" x="0px" enable-background="new 0 0 110.885 81.943" height="81" y="0px" data-parent="shape_aeGjDruE5V">
 <g fill="#00a0e9">
  <polygon clip-rule="evenodd" fill-rule="evenodd" points="3,3.121 104.885,3 93.139,20.252 38.718,20.252    42.955,26.004 89.932,26.004 78.43,41.985 53.671,41.985 66.927,58.449 54.457,75.943 3,3.121 3,3.121  "></polygon>
 </g>
 <!--Copyright (c) Logomaker.com.cn  @2015-05-31-->
</svg></g> <!----></g><g id="shapge_AGaq876Abu" transform="translate(51,111) rotate(0,41,14.5) scale(1,1)" filter="" style="cursor: move; opacity: 1;"><g><svg xmlns="http://www.w3.org/2000/svg" version="1.1" xmlns:xlink="http://www.w3.org/1999/xlink" overflow="hidden" style="top:0; left: 0" width="82" height="29" viewBox="0 0 82 29" preserveAspectRatio="none" data-parent="shapge_AGaq876Abu"><rect fill="rgba(0,0,0,0)" width="82" height="29"></rect> <rect opacity="0"></rect><g transform="translate(0 0)" data-width="72.761"><path fill="#FFFFFF" d="M5.60 0L2.90 0L2.90-21.26L15.17-21.26L15.17-19.00L5.60-19.00L5.60-11.80L13.72-11.80L13.72-9.54L5.60-9.54L5.60 0Z" transform="translate(0 25.52)"></path><path fill="#FFFFFF" d="M7.25 0.38L7.25 0.38L7.25 0.38Q4.79 0.38 3.63-1.20L3.63-1.20L3.63-1.20Q2.47-2.78 2.47-5.77L2.47-5.77L2.47-15.75L5.10-15.75L5.10-6.09L5.10-6.09Q5.10-3.89 5.80-2.90L5.80-2.90L5.80-2.90Q6.50-1.91 8.06-1.91L8.06-1.91L8.06-1.91Q9.28-1.91 10.25-2.55L10.25-2.55L10.25-2.55Q11.22-3.19 12.33-4.58L12.33-4.58L12.33-15.75L14.96-15.75L14.96 0L12.76 0L12.56-2.47L12.47-2.47L12.47-2.47Q11.37-1.16 10.12-0.39L10.12-0.39L10.12-0.39Q8.87 0.38 7.25 0.38Z" transform="translate(16.008 25.52)"></path><path fill="#FFFFFF" d="M5.31 0L2.67 0L2.67-23.08L5.31-23.08L5.31-16.76L5.22-13.51L5.22-13.51Q6.29-14.65 7.57-15.40L7.57-15.40L7.57-15.40Q8.85-16.15 10.44-16.15L10.44-16.15L10.44-16.15Q12.93-16.15 14.09-14.57L14.09-14.57L14.09-14.57Q15.25-12.99 15.25-9.98L15.25-9.98L15.25 0L12.62 0L12.62-9.63L12.62-9.63Q12.62-11.86 11.90-12.85L11.90-12.85L11.90-12.85Q11.19-13.83 9.63-13.83L9.63-13.83L9.63-13.83Q8.41-13.83 7.44-13.22L7.44-13.22L7.44-13.22Q6.47-12.62 5.31-11.43L5.31-11.43L5.31 0Z" transform="translate(33.611000000000004 25.52)"></path><path fill="#FFFFFF" d="M6.79 0.38L6.79 0.38L6.79 0.38Q5.10 0.38 3.58-0.23L3.58-0.23L3.58-0.23Q2.06-0.84 0.90-1.80L0.90-1.80L2.20-3.54L2.20-3.54Q3.22-2.70 4.34-2.19L4.34-2.19L4.34-2.19Q5.45-1.68 6.87-1.68L6.87-1.68L6.87-1.68Q8.44-1.68 9.21-2.41L9.21-2.41L9.21-2.41Q9.98-3.13 9.98-4.15L9.98-4.15L9.98-4.15Q9.98-4.96 9.44-5.50L9.44-5.50L9.44-5.50Q8.90-6.03 8.09-6.42L8.09-6.42L8.09-6.42Q7.28-6.82 6.38-7.13L6.38-7.13L6.38-7.13Q5.25-7.54 4.18-8.09L4.18-8.09L4.18-8.09Q3.10-8.64 2.39-9.50L2.39-9.50L2.39-9.50Q1.68-10.35 1.68-11.69L1.68-11.69L1.68-11.69Q1.68-13.57 3.12-14.86L3.12-14.86L3.12-14.86Q4.55-16.15 7.11-16.15L7.11-16.15L7.11-16.15Q8.55-16.15 9.82-15.63L9.82-15.63L9.82-15.63Q11.08-15.11 12.01-14.38L12.01-14.38L10.73-12.67L10.73-12.67Q9.92-13.28 9.05-13.67L9.05-13.67L9.05-13.67Q8.18-14.07 7.11-14.07L7.11-14.07L7.11-14.07Q5.63-14.07 4.93-13.40L4.93-13.40L4.93-13.40Q4.23-12.73 4.23-11.80L4.23-11.80L4.23-11.80Q4.23-11.08 4.68-10.61L4.68-10.61L4.68-10.61Q5.13-10.15 5.86-9.82L5.86-9.82L5.86-9.82Q6.58-9.48 7.42-9.19L7.42-9.19L7.42-9.19Q7.57-9.13 7.71-9.08L7.71-9.08L7.71-9.08Q8.87-8.67 9.98-8.12L9.98-8.12L9.98-8.12Q11.08-7.57 11.80-6.68L11.80-6.68L11.80-6.68Q12.53-5.80 12.53-4.29L12.53-4.29L12.53-4.29Q12.53-2.38 11.05-1.00L11.05-1.00L11.05-1.00Q9.57 0.38 6.79 0.38Z" transform="translate(51.214000000000006 25.52)"></path><path fill="#FFFFFF" d="M5.31 0L2.67 0L2.67-15.75L5.31-15.75L5.31 0ZM4.00-19.00L4.00-19.00L4.00-19.00Q3.22-19.00 2.70-19.49L2.70-19.49L2.70-19.49Q2.18-19.98 2.18-20.71L2.18-20.71L2.18-20.71Q2.18-22.33 4.00-22.42L4.00-22.42L4.00-22.42Q4.79-22.42 5.31-21.97L5.31-21.97L5.31-21.97Q5.83-21.52 5.83-20.71L5.83-20.71L5.83-20.71Q5.83-19.98 5.31-19.49L5.31-19.49L5.31-19.49Q4.79-19.00 4.00-19.00Z" transform="translate(64.786 25.52)"></path></g></svg></g> <!----></g>  <!----></svg>